<svg width="19" height="32" viewBox="0 0 19 32" fill="none" xmlns="http://www.w3.org/2000/svg">
<g id="Group 1073717787">
<g id="Signet">
<path id="Path 4298" d="M9.10549 0.00390705C7.90364 0.009901 6.71473 0.253853 5.60667 0.721874C4.49861 1.18989 3.4931 1.87286 2.64756 2.73163C1.80203 3.59041 1.13303 4.60825 0.678775 5.72702C0.224522 6.84578 -0.00607951 8.04355 0.000121829 9.25193V12.3066H7.39829V7.88099C7.39821 7.67315 7.43885 7.46733 7.51791 7.27529C7.59697 7.08325 7.71289 6.90876 7.85905 6.76178C8.00521 6.6148 8.17874 6.49826 8.36973 6.41873C8.56071 6.3392 8.76542 6.2983 8.97214 6.29834H9.23885C9.44558 6.2983 9.65029 6.33921 9.8413 6.41873C10.0323 6.49826 10.2059 6.6148 10.352 6.76178C10.4982 6.90876 10.6142 7.08325 10.6933 7.27529C10.7724 7.46734 10.813 7.67314 10.813 7.88099V19.745C11.7846 19.7451 12.7466 19.5527 13.6442 19.1789C14.5418 18.8051 15.3574 18.2572 16.0444 17.5664C16.7314 16.8757 17.2763 16.0557 17.6481 15.1532C18.0199 14.2508 18.2112 13.2834 18.2112 12.3066V9.25193C18.2164 6.8036 17.2575 4.45269 15.5441 2.71304C14.7033 1.85457 13.701 1.17292 12.5956 0.707811C11.4902 0.242699 10.3038 0.00340269 9.10549 0.00390705Z" fill="#F2F2F2"/>
<path id="Path 4299" d="M9.2392 25.7511H8.97249C8.7658 25.7511 8.56113 25.7102 8.37016 25.6307C8.17919 25.5512 8.00567 25.4346 7.85952 25.2876C7.71337 25.1407 7.59744 24.9663 7.51837 24.7743C7.43929 24.5823 7.3986 24.3765 7.39865 24.1686V12.3047C6.42708 12.3046 5.46501 12.4969 4.56738 12.8707C3.66976 13.2445 2.85417 13.7924 2.16717 14.4831C1.48017 15.1739 0.935215 15.9939 0.563451 16.8964C0.191688 17.7989 0.000393837 18.7662 0.000477441 19.743V22.7552C-0.0118477 23.9653 0.214572 25.1659 0.66664 26.2875C1.11871 27.4091 1.78745 28.4295 2.6342 29.2896C3.48095 30.1498 4.4889 30.8326 5.59976 31.2985C6.71061 31.7645 7.90234 32.0045 9.106 32.0045C10.3097 32.0045 11.5014 31.7645 12.6122 31.2985C13.7231 30.8326 14.7311 30.1498 15.5778 29.2896C16.4246 28.4295 17.0933 27.4091 17.5454 26.2875C17.9974 25.1659 18.2239 23.9653 18.2115 22.7552V19.743H10.8134V24.1686C10.8134 24.3765 10.7726 24.5823 10.6935 24.7743C10.6144 24.9663 10.4985 25.1408 10.3523 25.2877C10.2061 25.4346 10.0326 25.5512 9.84157 25.6307C9.65059 25.7102 9.44591 25.7511 9.2392 25.7511Z" fill="#F2F2F2"/>
</g>
</g>
</svg>
