<svg xmlns="http://www.w3.org/2000/svg" width="33" height="32" fill="none" viewBox="0 0 33 32">
  <path fill="#F5B5FF" d="M.5 0h32v32H.5z"/>
  <path fill="#000" d="m14.706 14.038-.863-1.768c-.08-.171 0-.352.19-.392l6.106-1.467c.19-.05.341.08.341.271v2.27a.29.29 0 0 1-.21.272l-4.863 1.165a.654.654 0 0 0-.48.603l-.01 1.95c0 .2-.161.411-.362.451l-1.484.342c-.31.07-.571-.13-.571-.452v-1.899c0-.2.16-.402.36-.452l1.595-.372c.25-.05.36-.291.25-.522Z"/>
  <path fill="#000" d="m12.72 18.71 3.299-.764c.29-.07.42-.342.29-.613l-.762-1.577c-.12-.252 0-.513.271-.573l4.341-1.035c.19-.05.341.08.341.271v2.1c0 .221-.18.442-.391.493l-3.008.723c-.29.06-.42.341-.29.613l.832 1.718c.08.17 0 .352-.19.392l-4.602 1.065c-.19.04-.341-.08-.341-.272v-2.27c0-.12.09-.241.21-.272Z"/>
  <circle cx="16.486" cy="5.16" r=".66" fill="#000"/>
  <circle cx="8.365" cy="21.404" r=".66" fill="#000"/>
  <circle cx="19.18" cy="6.892" r=".878" fill="#000"/>
  <circle cx="11.072" cy="23.209" r=".66" fill="#000"/>
  <circle cx="21.9" cy="8.77" r=".66" fill="#000"/>
  <circle cx="13.998" cy="25.232" r=".878" fill="#000"/>
  <circle cx="24.609" cy="10.575" r=".66" fill="#000"/>
  <circle cx="8.378" cy="11.107" r=".878" fill="#000"/>
  <circle cx="11.072" cy="12.379" r=".66" fill="#000"/>
  <circle cx="13.779" cy="10.575" r=".66" fill="#000"/>
  <circle cx="16.486" cy="9.067" r=".439" fill="#000"/>
  <circle cx="16.486" cy="26.819" r=".66" fill="#000"/>
  <circle cx="24.622" cy="14.16" r=".878" fill="#000"/>
  <circle cx="21.9" cy="12.379" r=".66" fill="#000"/>
  <circle cx="8.365" cy="14.184" r=".66" fill="#000"/>
  <circle cx="11.089" cy="19.43" r=".439" fill="#000"/>
  <circle cx="11.027" cy="15.652" r=".614" fill="#000"/>
  <circle cx="21.756" cy="19.43" r=".878" fill="#000"/>
  <circle cx="21.9" cy="15.989" r=".66" fill="#000"/>
  <circle cx="19.193" cy="21.404" r=".66" fill="#000"/>
  <circle cx="19.068" cy="18.032" r=".439" fill="#000"/>
  <circle cx="16.486" cy="23.209" r=".66" fill="#000"/>
  <circle cx="8.365" cy="17.794" r=".66" fill="#000"/>
  <circle cx="24.607" cy="17.794" r=".66" fill="#000"/>
  <circle cx="24.609" cy="21.404" r=".66" fill="#000"/>
  <circle cx="21.9" cy="23.209" r=".66" fill="#000"/>
  <circle cx="13.779" cy="6.965" r=".66" fill="#000"/>
  <circle cx="19.193" cy="25.013" r=".66" fill="#000"/>
  <circle cx="11.072" cy="8.77" r=".66" fill="#000"/>
</svg>
