<svg width="81" height="81" viewBox="0 0 81 81" fill="none" xmlns="http://www.w3.org/2000/svg">
<circle cx="40.5" cy="40.5" r="40.5" fill="#1C1C1C"/>
<path d="M40.6588 26.2996C44.4441 26.2996 47.646 28.3348 48.6592 31.1112H56.664C55.642 24.0012 48.8566 18.4922 40.6588 18.4922C31.7549 18.4922 24.5133 24.9881 24.5133 32.9753C24.5133 40.9626 31.7549 47.4673 40.6588 47.4673V39.6599C36.0621 39.6599 32.3207 36.6597 32.3207 32.9753C32.3207 29.291 36.0621 26.2952 40.6588 26.2952V26.2996Z" fill="#EBEBEB"/>
<path d="M40.6581 34.438V42.2454C45.2548 42.2454 48.9962 45.2455 48.9962 48.9299C48.9962 52.6143 45.2548 55.6144 40.6581 55.6144C37.0175 55.6144 33.9253 53.7328 32.7893 51.123H24.6968C25.881 58.0751 32.5875 63.4174 40.6581 63.4174C49.562 63.4174 56.8036 56.9171 56.8036 48.9255C56.8036 40.9339 49.562 34.4336 40.6581 34.4336V34.438Z" fill="#EBEBEB"/>
</svg>
